<svg xmlns="http://www.w3.org/2000/svg" width="41" height="40" fill="currentColor" class="transition-all  ease-in-out duration-300 hover:fill-tangerine text-tangerine hover:text-white fill-[#FEF5F0] hover:stroke-white" alt="youtube Logo"><rect width="40" height="40" x="0.5" rx="20"></rect><g stroke="currentColor" stroke-linejoin="round" stroke-width="2" clip-path="url(#youtube_svg__a)"><path d="M14.032 13.207c2.771-.138 4.927-.207 6.467-.207s3.696.07 6.47.207a3 3 0 0 1 2.84 2.747c.127 1.517.19 2.853.19 4.008 0 1.17-.065 2.524-.195 4.064a3 3 0 0 1-2.794 2.741c-2.37.155-4.54.233-6.511.233-1.97 0-4.14-.078-6.51-.233a3 3 0 0 1-2.793-2.74A48.892 48.892 0 0 1 11 19.962c0-1.145.064-2.482.193-4.01a3 3 0 0 1 2.84-2.745Z"></path><path d="M19 17.805v4.398a.429.429 0 0 0 .665.358l3.299-2.18a.428.428 0 0 0 .003-.714l-3.3-2.218a.429.429 0 0 0-.667.356Z"></path></g><defs><clipPath id="youtube_svg__a"><path fill="#fff" d="M8.5 8h24v24h-24z"></path></clipPath></defs></svg>