<svg xmlns="http://www.w3.org/2000/svg" width="48" height="48" fill="none"><path stroke="#fff" stroke-linecap="round" stroke-linejoin="round" stroke-width="2" d="M25.325 25.325 17.44 17.44m5.722.85.912-3.861a.558.558 0 0 1 .936-.267l3.072 3.071c.206.207.324.486.326.78l.03 3.462m3.963 4.362a24.995 24.995 0 0 1-6.564 6.564m-7.547-9.24-3.861.912a.558.558 0 0 0-.267.936l3.071 3.071c.207.207.486.325.78.327l3.462.03m6.174 4.625 4.336.9a1.672 1.672 0 0 0 1.978-1.977l-.901-4.336a6.682 6.682 0 0 0-1.82-3.369l-3.556-3.557a8.929 8.929 0 0 0-5.016-2.52l-.082-.012a3.877 3.877 0 0 0-4.396 4.397l.013.082a8.922 8.922 0 0 0 2.519 5.016l3.556 3.556a6.682 6.682 0 0 0 3.369 1.82Z"></path></svg>