<svg xmlns="http://www.w3.org/2000/svg" width="46" height="45" fill="none"><path stroke="#98A2B3" stroke-width="0.929" d="m20.53 11.363-.026.017c-1.854 1.19-3.857 3.079-5.439 4.913-.79.915-1.467 1.808-1.964 2.582-.508.79-.793 1.406-.858 1.78-.07.408-.005.587.069.688.09.123.272.245.66.384.242.088.514.166.836.26.197.056.412.118.65.191.61.186 1.32.428 2.108.795 1.66.771 3.14 2.541 3.657 4.653.524 2.14.056 4.627-2.168 6.786-2.304 2.236-5.692 2.068-8.28.182-2.6-1.896-4.43-5.527-3.806-10.323.8-6.147 4.804-11.48 11.868-16.017l2.694 3.109Zm0 0 .024-.02m-.023.02.023-.02m0 0c.414-.352.589-1.045.173-1.585l-.942-1.224m.77 2.809-.77-2.81m0 0c-.247-.32-.552-.556-.947-.591m.947.592-.947-.592m0 0c-.371-.033-.711.126-1.001.312l1.001-.312Z"></path><path stroke="#98A2B3" stroke-width="0.929" d="M36.504 8.645c-6.995 4.492-10.881 9.72-11.658 15.686-1.21 9.286 7.094 13.831 11.302 9.747 4.208-4.084 1.685-9.267-1.361-10.684-3.047-1.417-4.91-.924-4.585-2.817.325-1.894 4.66-7.143 8.467-9.588a.695.695 0 0 0 .106-.948l-.941-1.224c-.41-.531-.801-.512-1.33-.172Z" clip-rule="evenodd"></path></svg>