<svg xmlns="http://www.w3.org/2000/svg" width="41" height="40" fill="currentColor" class="transition-all  ease-in-out duration-300 hover:fill-tangerine text-tangerine hover:text-white fill-[#FEF5F0] hover:stroke-white" alt="instagram Logo"><rect width="40" height="40" x="0.5" rx="20"></rect><g clip-path="url(#instagram_svg__a)"><path stroke="currentColor" stroke-linejoin="round" stroke-width="2" d="M25.5 11h-10a4 4 0 0 0-4 4v10a4 4 0 0 0 4 4h10a4 4 0 0 0 4-4V15a4 4 0 0 0-4-4Z"></path><path stroke="currentColor" stroke-linejoin="round" stroke-width="2" d="M20.5 24a4 4 0 1 0 0-8 4 4 0 0 0 0 8Z"></path><path d="M26 15.5a1 1 0 1 0 0-2 1 1 0 0 0 0 2Z"></path></g><defs><clipPath id="instagram_svg__a"><path fill="#fff" d="M8.5 8h24v24h-24z"></path></clipPath></defs></svg>