<svg xmlns="http://www.w3.org/2000/svg" width="41" height="40" fill="currentColor" class="transition-all  ease-in-out duration-300 hover:fill-tangerine text-tangerine hover:text-white fill-[#FEF5F0] hover:stroke-white" alt="tictok Logo"><rect width="40" height="40" x="0.5" rx="20"></rect><g clip-path="url(#tiktok_svg__a)"><path stroke="currentColor" stroke-linejoin="round" stroke-width="2" d="M19.18 17.57c-2.945-.142-4.992.908-6.14 3.15-1.724 3.362-.3 8.863 5.45 8.863 5.749 0 5.915-5.555 5.915-6.137v-6.509c1.23.78 2.267 1.248 3.11 1.407.844.159 1.38.23 1.61.211v-3.238c-.78-.094-1.456-.273-2.025-.538-.854-.397-2.548-1.498-2.548-3.113v-1.25h-3.559c-.01 7.909-.01 12.252 0 13.03.016 1.167-.89 2.8-2.725 2.8-1.836 0-2.741-1.632-2.741-2.684a2.8 2.8 0 0 1 1.136-2.27c.542-.409 1.295-.573 2.516-.573V17.57Z"></path></g><defs><clipPath id="tiktok_svg__a"><path fill="#fff" d="M8.5 8h24v24h-24z"></path></clipPath></defs></svg>